<?xml version="1.0" encoding="UTF-8"?>
<svg width="16px" height="16px" viewBox="0 0 16 16" version="1.1" xmlns="http://www.w3.org/2000/svg" xmlns:xlink="http://www.w3.org/1999/xlink">
    <!-- Generator: Sketch 49.3 (51167) - http://www.bohemiancoding.com/sketch -->
    <title>export_normal_20x20 1</title>
    <desc>Created with Sketch.</desc>
    <defs></defs>
    <g id="Page-1" stroke="none" stroke-width="1" fill="none" fill-rule="evenodd">
        <g id="进度管理-模型页-模拟" transform="translate(-1845.000000, -47.000000)" fill="#F7A500" stroke="#F7A500" stroke-width="0.5">
            <g id="任务显示-copy" transform="translate(729.000000, 40.000000)">
                <g id="工具栏">
                    <g id="Group-3" transform="translate(1114.000000, 5.000000)">
                        <g id="export_normal_20x20-copy">
                            <path d="M16.681838,8.11896139 C16.49091,8.11896139 16.363676,8.2462498 16.363676,8.43725937 L16.363676,15.4084246 C16.363676,15.9495842 15.95005,16.3633869 15.4091045,16.3633869 L4.5908955,16.3633869 C4.05001837,16.3633869 3.63639238,15.9495842 3.63639238,15.4084246 L3.63639238,5.22225654 C3.63639238,4.68107987 4.05001837,4.26727711 4.5908955,4.26727711 L8.95000726,4.26727711 C9.14093523,4.26727711 9.26816927,4.13998869 9.26816927,3.94897912 C9.26816927,3.75796956 9.14093523,3.63068114 8.95000726,3.63068114 L4.5908955,3.63068114 C3.70001794,3.63068114 3,4.36278189 3,5.22225654 L3,15.4084246 C3,16.2997513 3.70001794,17 4.5908955,17 L15.4091045,17 C16.2999821,17 17,16.2997513 17,15.4084246 L17,8.43725937 C17,8.2462498 16.8409275,8.11896139 16.681838,8.11896139 Z M12.1000111,5.44504974 L11.7500107,5.54055452 C10.7954563,5.82706887 9.9363488,6.11351483 9.2045608,6.78203121 C8.21821926,7.73694226 7.64543536,9.45587447 7.67729087,11.3658162 L7.67729087,12.5117198 C7.67729087,12.6708773 7.80452491,12.7982341 7.96366573,12.8300177 C8.12275528,12.8618869 8.28182774,12.734513 8.31361488,12.5753725 L8.50454285,11.8114026 C8.95000726,10.0925388 9.87272323,8.85106214 10.9545288,8.50089503 C11.3681547,8.37360661 11.9727087,8.21444907 12.4181902,8.18259705 L12.7363522,8.15074502 C12.8000291,8.15074502 12.895493,8.18259705 12.9272802,8.27810183 L13.3409062,9.71051969 C13.404583,9.90152926 13.5318341,10.0288348 13.7227621,10.0288348 C13.913673,10.0606868 14.0727625,9.96518201 14.1682265,9.80602447 L16.9363915,5.66791133 C17,5.57240655 17,5.44504974 16.9682299,5.31776132 C16.9363915,5.19038742 16.8409275,5.09489973 16.7136764,5.03124698 L12.2272622,3.05765245 C12.0681727,2.96214766 11.8773131,2.99401678 11.7181723,3.08952157 C11.5590827,3.21680999 11.5273127,3.40781955 11.5590827,3.56695999 L12.1000111,5.44504974 Z M12.7363522,5.44504974 L12.2591007,3.75796956 L16.268212,5.50877089 L13.8182261,9.13757648 L13.4363702,7.80064631 C13.3727446,7.57778472 13.1500466,7.4504963 12.9272802,7.48227993 L12.3545646,7.57778472 C11.8773131,7.60963674 11.1772951,7.80064631 10.7636691,7.92795182 C9.77725925,8.2462498 8.95000726,9.10570736 8.37729172,10.3472011 C8.53638127,9.07392372 8.98184568,7.95980385 9.68179527,7.29133876 C10.2863492,6.71832716 11.0499927,6.4318812 11.9409386,6.17721888 L12.4500286,6.01807844 C12.6727267,5.95435729 12.8318162,5.69971206 12.7363522,5.44504974 Z" id="Fill-1"></path>
                        </g>
                    </g>
                </g>
            </g>
        </g>
    </g>
</svg>