<?xml version="1.0" encoding="UTF-8"?>
<svg width="16px" height="17px" viewBox="0 0 16 17" version="1.1" xmlns="http://www.w3.org/2000/svg" xmlns:xlink="http://www.w3.org/1999/xlink">
    <!-- Generator: Sketch 49.3 (51167) - http://www.bohemiancoding.com/sketch -->
    <title>export_normal_20x20 1 copy</title>
    <desc>Created with Sketch.</desc>
    <defs></defs>
    <g id="Page-1" stroke="none" stroke-width="1" fill="none" fill-rule="evenodd">
        <g id="进度管理-模型页-模拟" transform="translate(-1647.000000, -46.000000)" fill="#F7A500" stroke="#F7A500" stroke-width="0.5">
            <g id="任务显示-copy" transform="translate(729.000000, 40.000000)">
                <g id="工具栏">
                    <g id="export_normal_20x20-copy-2" transform="translate(916.000000, 5.000000)">
                        <path d="M16.681838,8.11896139 C16.49091,8.11896139 16.363676,8.2462498 16.363676,8.43725937 L16.363676,15.4084246 C16.363676,15.9495842 15.95005,16.3633869 15.4091045,16.3633869 L4.5908955,16.3633869 C4.05001837,16.3633869 3.63639238,15.9495842 3.63639238,15.4084246 L3.63639238,5.22225654 C3.63639238,4.68107987 4.05001837,4.26727711 4.5908955,4.26727711 L8.95000726,4.26727711 C9.14093523,4.26727711 9.26816927,4.13998869 9.26816927,3.94897912 C9.26816927,3.75796956 9.14093523,3.63068114 8.95000726,3.63068114 L4.5908955,3.63068114 C3.70001794,3.63068114 3,4.36278189 3,5.22225654 L3,15.4084246 C3,16.2997513 3.70001794,17 4.5908955,17 L15.4091045,17 C16.2999821,17 17,16.2997513 17,15.4084246 L17,8.43725937 C17,8.2462498 16.8409275,8.11896139 16.681838,8.11896139 Z M13.197096,10.2454535 L13.510452,10.0626162 C14.3583254,9.53880777 15.1140219,9.03976884 15.64785,8.20463093 C16.3534336,7.02697372 16.461808,5.21836532 15.9367086,3.38174804 L15.640127,2.27489025 C15.598934,2.12115587 15.4430729,2.03106923 15.2811285,2.04155727 C15.1192115,2.05194947 14.9985261,2.21615419 15.0090106,2.37809918 L15.0223183,3.1654532 C15.0369074,4.94104283 14.46695,6.37903369 13.5126361,6.99726101 C13.1460487,7.22726647 12.6032874,7.53747092 12.1812293,7.68353671 L11.8821523,7.79664979 C11.8206452,7.81313057 11.7201901,7.80707178 11.6647676,7.72304836 L10.8944986,6.44649324 C10.7835546,6.27847294 10.6276903,6.18844027 10.4432681,6.23785607 C10.2506184,6.25650075 10.1216682,6.38992669 10.07065,6.56836896 L8.46783047,11.2819331 C8.43110786,11.3906468 8.46407022,11.513664 8.52770241,11.6283925 C8.59142275,11.7431858 8.70834791,11.8107119 8.84773761,11.8392608 L13.6920848,12.5844373 C13.8704719,12.6355124 14.0465798,12.5553311 14.1755796,12.4218919 C14.2963036,12.2577653 14.2775542,12.0650415 14.2056781,11.9195464 L13.197096,10.2454535 Z M12.4658805,10.3400763 L13.3635186,11.8461488 L9.03787372,11.192639 L10.4651744,7.05337892 L11.1800419,8.24592272 C11.2991803,8.44472298 11.5472347,8.51003566 11.7541843,8.42167884 L12.2826666,8.18119861 C12.7354123,8.02691013 13.3621408,7.66123108 13.7287237,7.43120911 C14.5991409,6.8684552 15.175761,5.82417438 15.4076395,4.47675378 C15.5835193,5.74782073 15.4415891,6.93927257 14.9385012,7.76612054 C14.5028533,8.47607732 13.8393679,8.95040836 13.0446917,9.42698704 L12.5941372,9.71246709 C12.3955196,9.83165548 12.307758,10.1187993 12.4658805,10.3400763 Z" id="Fill-1"></path>
                    </g>
                </g>
            </g>
        </g>
    </g>
</svg>