<?xml version="1.0" encoding="UTF-8"?>
<svg width="20px" height="20px" viewBox="0 0 20 20" version="1.1" xmlns="http://www.w3.org/2000/svg" xmlns:xlink="http://www.w3.org/1999/xlink">
    <!-- Generator: Sketch 49.3 (51167) - http://www.bohemiancoding.com/sketch -->
    <title>模拟</title>
    <desc>Created with Sketch.</desc>
    <defs></defs>
    <g id="模拟" stroke="none" stroke-width="1" fill="none" fill-rule="evenodd">
        <g id="模拟炒股" transform="translate(3.000000, 4.000000)" fill="#F7A500" fill-rule="nonzero">
            <path d="M0.858456531,8.03588922 L3.38451533,5.19423917 L6.61773608,6.37080482 C7.12205128,6.56599543 7.32433771,6.46840013 7.32433771,6.37080482 L12.9816335,1.56857348 L12.9816335,2.45072662 C12.9816335,2.74459693 13.1833596,2.94032974 13.4865091,2.94032974 C13.7890982,2.94032974 13.9913846,2.74459693 13.9913846,2.45072662 L13.9913846,0.490145328 C13.9913846,0.195732816 13.7896585,0 13.4865091,0 L11.4664465,0 C11.1632971,0 10.9610106,0.195732816 10.9610106,0.490145328 C10.9610106,0.78401564 11.1627367,0.979748457 11.4664465,0.979748457 L12.1730482,0.979748457 L6.9203252,5.29183448 C6.9203252,5.29183448 4.19254034,4.31208602 3.68710444,4.11581102 C3.38451533,4.01821571 3.18222889,3.9200782 2.97994246,4.11581102 L0.151294559,7.25187358 C-0.0504315197,7.44814858 -0.0504315197,7.8401564 0.151294559,8.03588922 C0.353580992,8.13348453 0.656730452,8.13348453 0.858456531,8.03588922 Z M1.54936835,12.4602098 C1.54936835,12.7557067 1.2843227,12.9948152 0.957078178,12.9948152 L0.759834897,12.9948152 C0.433150715,12.9948152 0.168105066,12.7557067 0.168105066,12.4602098 L0.168105066,9.07419485 C0.168105066,8.77869795 0.433150715,8.53958944 0.759834897,8.53958944 L0.957078178,8.53958944 C1.2843227,8.53958944 1.54936836,8.77869795 1.54936835,9.07419485 L1.54936835,12.4602098 Z M7.70873796,12.4602098 C7.70873796,12.7557067 7.44369231,12.9948152 7.11700813,12.9948152 L6.91976486,12.9948152 C6.59308068,12.9948152 6.32803503,12.7557067 6.32803503,12.4602098 L6.32803503,8.18336657 C6.32803503,7.88786967 6.59308068,7.64821896 6.91976486,7.64821896 L7.11700813,7.64821896 C7.44369231,7.64821896 7.70873796,7.88786967 7.70873796,8.18336657 L7.70873796,12.4602098 Z M4.62905315,12.4602098 C4.62905315,12.7557067 4.3640075,12.9948152 4.03732332,12.9948152 L3.84008005,12.9948152 C3.51283553,12.9948152 3.24778987,12.7557067 3.24778987,12.4602098 L3.24778987,7.29253829 C3.24778987,6.99704139 3.51283552,6.75793289 3.84008005,6.75793287 L4.03732332,6.75793287 C4.3640075,6.75793287 4.62905315,6.99704138 4.62905315,7.29253829 L4.62905315,12.460752 L4.62905315,12.4602098 Z M10.7889831,12.4602098 C10.7889831,12.7557067 10.5239375,12.9948152 10.1966929,12.9948152 L9.99944966,12.9948152 C9.67276548,12.9948152 9.40771983,12.7557067 9.40771983,12.4602098 L9.40771983,6.40116781 C9.40771983,6.10567091 9.67276548,5.86656241 9.99944966,5.86656239 L10.1966929,5.86656239 C10.5239375,5.86656239 10.7889831,6.1056709 10.7889831,6.40116781 L10.7889831,12.4596676 L10.7889831,12.4602098 Z M13.8686679,12.4602098 C13.8686679,12.7557067 13.6036223,12.9948152 13.2769381,12.9948152 L13.0796948,12.9948152 C12.7524503,12.9948152 12.4874046,12.7557067 12.4874046,12.4602098 L12.4874046,5.50979733 C12.4874046,5.21484262 12.7524503,4.97519193 13.0796948,4.97519191 L13.2769381,4.97519191 C13.6036223,4.97519191 13.8686679,5.21484262 13.8686679,5.50979733 L13.8686679,12.460752 L13.8686679,12.4602098 Z" id="Shape"></path>
        </g>
    </g>
</svg>