<?xml version="1.0" encoding="UTF-8"?>
<svg width="14px" height="16px" viewBox="0 0 14 16" version="1.1" xmlns="http://www.w3.org/2000/svg" xmlns:xlink="http://www.w3.org/1999/xlink">
    <!-- Generator: Sketch 49.3 (51167) - http://www.bohemiancoding.com/sketch -->
    <title>export_normal_20x20 1 copy 2</title>
    <desc>Created with Sketch.</desc>
    <defs></defs>
    <g id="Page-1" stroke="none" stroke-width="1" fill="none" fill-rule="evenodd">
        <g id="进度管理-模型页-模拟" transform="translate(-1024.000000, -47.000000)" stroke="#F7A500" stroke-width="1.3">
            <g id="任务显示-copy" transform="translate(729.000000, 40.000000)">
                <g id="工具栏">
                    <g id="layer_model_select-copy" transform="translate(292.000000, 5.000000)">
                        <path d="M9.96265669,16.8152109 L7.54664518,15.2826841 C7.51719866,15.2640055 7.50846949,15.2249925 7.52714804,15.1955459 C7.53065726,15.1900137 10.3447282,13.4978756 15.9693609,10.1191317 C15.9883701,10.1077188 16,10.0871714 16,10.0649992 L16,6.5907722 C16,6.5559012 15.9717315,6.52763268 15.9368605,6.52763268 C15.9295165,6.52763268 13.8572274,7.71218191 9.71999327,10.0812804 C9.69919781,10.0931996 9.67344652,10.092316 9.65351699,10.0789993 C5.15574877,7.09455874 4.00349194,6.34564234 4.00349194,6.36674957 C4.00349194,6.38161851 3.99563507,13.2026827 4.00349194,13.226753 C4.0093778,13.2299873 5.16163463,13.8970329 7.46026244,15.2278897 L4.03499807,13.244992 C4.0154985,13.2337036 4.00349194,13.2128797 4.00349194,13.1903483 L4.00349194,6.40468146 C4.00349194,6.38133786 4.01637165,6.35989894 4.03698125,6.34893683 L5.93974976,5.33686648 C5.94008634,5.33668746 6.65003272,4.93396522 8.06958893,4.12869975 C8.06978952,4.12858596 8.70339759,3.75526618 9.97041313,3.0087404 C9.98980812,2.99731284 10.0138203,2.99707581 10.0334371,3.00811828 L11.1846189,3.65612874 L15.9678324,6.34864216 C15.987704,6.35982806 16,6.3808598 16,6.4036634 L16,13.1910381 C16,13.2131983 15.9883827,13.2337363 15.9693899,13.2451532 L10.0290066,16.8160083 C10.0085217,16.8283221 9.98283972,16.8280134 9.96265669,16.8152109 Z" id="Triangle-Copy-5"></path>
                    </g>
                </g>
            </g>
        </g>
    </g>
</svg>