<?xml version="1.0" encoding="UTF-8"?>
<svg width="20px" height="20px" viewBox="0 0 20 20" version="1.1" xmlns="http://www.w3.org/2000/svg" xmlns:xlink="http://www.w3.org/1999/xlink">
    <!-- Generator: Sketch 49.3 (51167) - http://www.bohemiancoding.com/sketch -->
    <title>图标</title>
    <desc>Created with Sketch.</desc>
    <defs></defs>
    <g id="图标" stroke="none" stroke-width="1" fill="none" fill-rule="evenodd">
        <g id="图表B" transform="translate(3.000000, 4.000000)" fill="#F5A700" fill-rule="nonzero" stroke="#F7A800" stroke-width="0.3">
            <path d="M13.6955952,0.375178571 L13.6794256,0.358825893 C13.468592,0.132355849 13.1745821,0.00407897702 12.8670158,0.00437053571 L1.12312708,0.00437053571 C0.502841122,0.00437053571 7.65745834e-15,0.512907103 7.10542736e-15,1.14021875 L7.10542736e-15,9.85310268 C0.00168073745,10.4797089 0.503538642,10.9872511 1.12312708,10.9889509 L12.8648307,10.9889509 C13.4851167,10.9889509 13.9879578,10.4804143 13.9879578,9.85310268 L13.9879578,1.14021875 L13.9879578,1.13933482 C13.9879578,0.844544643 13.8769562,0.576272321 13.6951582,0.374294643 L13.6960322,0.375178571 L13.6955952,0.375178571 Z M3.85665233,5.93950893 L5.01561459,5.93950893 L3.85665233,6.66521429 L3.85665233,5.93950893 Z M3.72336293,10.4603616 L1.29531077,10.4603616 C0.883074027,10.4603616 0.548890122,10.1223926 0.548890122,9.70548661 L0.548890122,8.18512946 L3.71374861,8.18512946 L3.72336293,10.4603616 Z M3.72336293,6.75051339 L2.42149695,7.55488839 L2.69113485,7.99464286 L3.72030383,7.41036607 L3.72030383,8.04414286 L0.555445339,8.04414286 L0.555445339,5.93995089 L3.72030383,5.93995089 L3.72336293,6.75051339 Z M3.72336293,5.80515179 L0.555008324,5.80515179 L0.555008324,3.63820089 L3.71986681,3.63820089 L3.72336293,5.80515179 Z M3.72336293,3.5069375 L0.555008324,3.5069375 L0.555008324,2.03961607 L0.555008324,2.03652232 C0.555008324,1.62063393 0.887576304,1.28341518 1.29836987,1.28164732 L3.71680771,1.28164732 L3.72336293,3.5069375 Z M6.94372225,10.4634554 L3.85971143,10.4634554 L3.85971143,8.18512946 L6.94372225,8.18512946 L6.94372225,10.4634554 Z M6.94372225,8.05386607 L3.85971143,8.05386607 L3.85971143,7.34141964 L6.35943396,5.9200625 L6.38215871,5.93995089 L6.94372225,6.41285268 L6.94372225,8.05386607 Z M6.94372225,5.51301339 L6.35943396,5.09933482 L5.23281077,5.80515179 L3.85621532,5.80515179 L3.85621532,3.63820089 L6.94022614,3.63820089 L6.94372225,5.51301339 Z M6.94372225,3.5069375 L3.85971143,3.5069375 L3.85971143,1.28120536 L6.94372225,1.28120536 L6.94372225,3.5069375 Z M10.2156493,10.4603616 L7.07657464,10.4603616 L7.07657464,8.18512946 L10.2252636,8.18512946 L10.2156493,10.4603616 Z M10.2156493,8.05077232 L7.07657464,8.05077232 L7.07657464,6.52732143 L8.11535794,7.39401339 L9.65714484,5.93950893 L10.2449292,5.93950893 L10.2156493,8.05077232 Z M7.53762486,5.93950893 L8.56985294,5.93950893 L8.11535794,6.33020536 L7.53762486,5.93950893 Z M10.2257006,5.80515179 L9.79087125,5.80515179 L10.238811,5.38484375 L10.2257006,5.80515179 Z M10.2257006,3.99619196 L9.45,4.14071429 L9.96305494,4.74797321 L8.71013457,5.80161607 L7.35626387,5.80161607 L7.07395255,5.6045 L7.07395255,3.63466518 L10.2453663,3.63466518 L10.2257006,3.99619196 Z M10.2257006,3.50384375 L7.07701165,3.50384375 L7.07701165,1.28120536 L10.2584767,1.28120536 L10.2257006,3.50384375 Z M13.4390677,9.70195089 C13.4390677,10.120933 13.1034406,10.4603616 12.6891509,10.4603616 L10.3485017,10.4603616 L10.3485017,8.18866518 L13.448682,8.18866518 L13.4390677,9.70195089 Z M13.4390677,8.06049554 L10.358553,8.06049554 L10.358553,5.94967411 L13.449119,5.94967411 L13.4390677,8.06049554 Z M13.4390677,5.81178125 L10.3712264,5.81178125 L10.3712264,5.25711607 L10.3939512,5.23722768 L10.8711709,5.80205804 L11.2317078,4.77449107 L11.5922447,3.74383036 L10.3782186,3.97365179 L10.3782186,3.64527232 L13.4587334,3.64527232 L13.4390677,5.81178125 Z M13.4390677,3.51356696 L10.387833,3.51356696 L10.387833,1.29092857 L12.7123127,1.29092857 C13.1231063,1.29092857 13.4565483,1.62505357 13.4622295,2.03873214 L13.4622295,2.03917411 L13.4390677,3.51356696 Z" id="Shape"></path>
        </g>
    </g>
</svg>