<?xml version="1.0" encoding="UTF-8"?>
<svg width="20px" height="20px" viewBox="0 0 20 20" version="1.1" xmlns="http://www.w3.org/2000/svg" xmlns:xlink="http://www.w3.org/1999/xlink">
    <!-- Generator: Sketch 49.3 (51167) - http://www.bohemiancoding.com/sketch -->
    <title>doc_btn_delete</title>
    <desc>Created with Sketch.</desc>
    <defs></defs>
    <g id="doc_btn_delete" stroke="none" stroke-width="1" fill="none" fill-rule="evenodd">
        <g id="doc_btn_delete_normal-1" fill="#F9A900" stroke="#F7A800" stroke-width="0.5">
            <path d="M8.89820772,13.5076565 L8.89820772,7.79297929 C8.89820772,7.60248721 8.77577349,7.47551523 8.59207282,7.47551523 C8.40838859,7.47551523 8.28595436,7.60248721 8.28595436,7.79297929 L8.28595436,13.5076565 C8.28595436,13.6981657 8.40838859,13.8252058 8.59207282,13.8252058 C8.77577349,13.8252058 8.89820772,13.6981657 8.89820772,13.5076565 Z M14.1025174,15.7300755 C14.1025174,16.0793082 13.8270487,16.3650719 13.4902805,16.3650719 L6.75521409,16.3650719 C6.41846242,16.3650719 6.14297718,16.0793082 6.14297718,15.7300755 L6.14297718,7.79297929 C6.14297718,7.60248721 6.02049362,7.47551523 5.83685872,7.47551523 C5.65315805,7.47551523 5.5306745,7.60248721 5.5306745,7.79297929 L5.5306745,15.7300755 C5.5306745,16.4285408 6.08176007,17 6.75521409,17 L13.4902805,17 C14.1638003,17 14.7148366,16.4285408 14.7148366,15.7300755 L14.7148366,7.79297929 C14.7148366,7.60248721 14.592353,7.47551523 14.4087181,7.47551523 C14.2250174,7.47551523 14.1025174,7.60248721 14.1025174,7.79297929 L14.1025174,15.7300755 Z M15.9393762,5.57057734 L13.796399,5.57057734 L13.796399,4.30065286 C13.796399,3.60217052 13.2453792,3.03071133 12.5718594,3.03071133 L7.67365168,3.03071133 C7.00013188,3.03071133 6.44909564,3.60217052 6.44909564,4.30065286 L6.44909564,5.57057734 L4.30611846,5.57057734 C4.12248356,5.57057734 4,5.69761754 4,5.88804141 C4,6.07855055 4.12248356,6.20559074 4.30611846,6.20559074 L15.9393762,6.20559074 C16.1230768,6.20559074 16.2455111,6.07855055 16.2455111,5.88804141 C16.2455111,5.69761754 16.1230768,5.57057734 15.9393762,5.57057734 Z M13.1841621,5.57057734 L7.06141477,5.57057734 L7.06141477,4.30065286 C7.06141477,3.95140317 7.3369,3.66570767 7.67365168,3.66570767 L12.5718594,3.66570767 C12.9086111,3.66570767 13.1841621,3.95140317 13.1841621,4.30065286 L13.1841621,5.57057734 Z M11.959606,13.5076565 L11.959606,7.79297929 C11.959606,7.60248721 11.8371225,7.47551523 11.6534218,7.47551523 C11.4697869,7.47551523 11.3473034,7.60248721 11.3473034,7.79297929 L11.3473034,13.5076565 C11.3473034,13.6981657 11.4697869,13.8252058 11.6534218,13.8252058 C11.8371225,13.8252058 11.959606,13.6981657 11.959606,13.5076565 Z" id="删除"></path>
        </g>
    </g>
</svg>