<?xml version="1.0" encoding="UTF-8"?>
<svg width="16px" height="16px" viewBox="0 0 16 16" version="1.1" xmlns="http://www.w3.org/2000/svg" xmlns:xlink="http://www.w3.org/1999/xlink">
    <!-- Generator: Sketch 49.3 (51167) - http://www.bohemiancoding.com/sketch -->
    <title>Group 6 Copy</title>
    <desc>Created with Sketch.</desc>
    <defs></defs>
    <g id="Page-1" stroke="none" stroke-width="1" fill="none" fill-rule="evenodd">
        <g id="进度管理-模型页-新增任务" transform="translate(-647.000000, -324.000000)">
            <g id="Group-10" transform="translate(295.000000, 133.000000)">
                <g id="Group-6-Copy" transform="translate(352.000000, 191.000000)">
                    <circle id="Oval" fill="#9DC5F9" cx="8" cy="8" r="8"></circle>
                    <path d="M7.844,4 C8.612,4 9.236,4.204 9.716,4.636 C10.196,5.056 10.436,5.632 10.436,6.352 C10.436,6.94 10.28,7.432 9.98,7.816 C9.872,7.948 9.536,8.26 8.972,8.752 C8.744,8.944 8.576,9.16 8.468,9.376 C8.336,9.616 8.276,9.88 8.276,10.168 L8.276,10.372 L6.992,10.372 L6.992,10.168 C6.992,9.724 7.064,9.34 7.232,9.028 C7.388,8.692 7.844,8.2 8.588,7.54 L8.792,7.312 C9.008,7.036 9.128,6.748 9.128,6.436 C9.128,6.016 9.008,5.692 8.78,5.452 C8.54,5.212 8.192,5.092 7.76,5.092 C7.22,5.092 6.824,5.26 6.584,5.608 C6.368,5.896 6.26,6.304 6.26,6.832 L5,6.832 C5,5.956 5.252,5.272 5.756,4.768 C6.26,4.252 6.956,4 7.844,4 Z M7.628,11.02 C7.88,11.02 8.096,11.092 8.264,11.26 C8.432,11.416 8.516,11.62 8.516,11.872 C8.516,12.124 8.42,12.328 8.252,12.496 C8.084,12.652 7.868,12.736 7.628,12.736 C7.388,12.736 7.172,12.652 7.004,12.484 C6.836,12.316 6.752,12.112 6.752,11.872 C6.752,11.62 6.836,11.416 7.004,11.26 C7.172,11.092 7.388,11.02 7.628,11.02 Z" id="？" fill="#FFFFFF"></path>
                </g>
            </g>
        </g>
    </g>
</svg>