<?xml version="1.0" encoding="UTF-8"?>
<svg width="20px" height="20px" viewBox="0 0 20 20" version="1.1" xmlns="http://www.w3.org/2000/svg" xmlns:xlink="http://www.w3.org/1999/xlink">
    <!-- Generator: Sketch 49.3 (51167) - http://www.bohemiancoding.com/sketch -->
    <title>doc_btn_rename_normal</title>
    <desc>Created with Sketch.</desc>
    <defs></defs>
    <g id="doc_btn_rename_normal" stroke="none" stroke-width="1" fill="none" fill-rule="evenodd">
        <path d="M16.1635616,3.68926724 C15.6882493,3.23392471 15.1637606,3.00303888 14.6038135,3.00303888 C13.7283903,3.00303888 13.0896448,3.56829108 12.9149621,3.7416311 C12.6694332,3.984936 4.28129967,12.3745019 4.28129967,12.3745019 C4.22648103,12.4295884 4.18652637,12.498148 4.16600244,12.5736989 C3.97666743,13.2725571 3.02919891,16.3737591 3.01969513,16.4048331 C2.97094199,16.5635408 3.0143173,16.73667 3.13141302,16.8535884 C3.21585382,16.9372371 3.32799488,16.9824517 3.44286894,16.9824517 C3.48806037,16.9824517 3.53358682,16.9754429 3.57828456,16.9610389 C3.61058682,16.9504818 6.81200244,15.9157992 7.33904778,15.7586022 C7.40834249,15.7379448 7.47197725,15.700143 7.52342813,15.6490966 C7.85630723,15.3201405 15.6797153,7.58532496 16.1990377,7.04928481 C16.736204,6.49576661 17.0029621,5.91972897 16.9925591,5.33668255 C16.9824382,4.76106649 16.7034961,4.20684566 16.1635616,3.68926724 Z M6.80119388,13.2569761 C6.34462461,12.7969611 5.88012083,12.5372497 5.5219571,12.3911719 C7.06230974,10.8505219 11.0861813,6.82628606 12.7761788,5.13701128 C12.9966523,5.18984942 13.5205239,5.364138 14.0585893,5.90688832 C14.602015,6.454803 14.7469344,7.07990212 14.7733123,7.21863738 C13.057607,8.92519698 9.10819639,12.8318293 7.55118128,14.3715834 C7.40716113,14.0367428 7.17490924,13.633606 6.80119388,13.2569761 Z M4.92887901,13.1279724 C5.16807801,13.1913852 5.66618884,13.3752647 6.17470269,13.8879071 C6.56626189,14.2827352 6.75016617,14.7169285 6.83280848,14.9819975 C6.22615357,15.1769435 4.89814602,15.6351669 4.05428456,15.9072271 C4.30457423,15.0845119 4.72665483,13.8038544 4.92887901,13.1279724 Z M15.5659344,6.42557339 C15.5481611,6.44401755 15.518539,6.47373901 15.483345,6.50948556 C15.3454609,6.15418066 15.1034936,5.69822332 14.684675,5.2757641 C14.2567405,4.84429359 13.822476,4.59001002 13.4744508,4.43931241 L13.5360931,4.37797238 C13.5859571,4.32871768 14.0391586,3.89566624 14.6038135,3.89566624 C14.9290402,3.89566624 15.2482014,4.0438168 15.5531158,4.33611291 C15.9146473,4.68284566 16.1011082,5.02502885 16.1071561,5.35308907 C16.11301,5.6883513 15.9311158,6.04899622 15.5659344,6.42557339 Z" id="Fill-1" stroke="#737D8B" stroke-width="0.2" fill="#757D8A"></path>
    </g>
</svg>