<?xml version="1.0" encoding="UTF-8"?>
<svg width="20px" height="20px" viewBox="0 0 20 20" version="1.1" xmlns="http://www.w3.org/2000/svg" xmlns:xlink="http://www.w3.org/1999/xlink">
    <!-- Generator: Sketch 49.3 (51167) - http://www.bohemiancoding.com/sketch -->
    <title>icon_more</title>
    <desc>Created with Sketch.</desc>
    <defs></defs>
    <g id="icon_more" stroke="none" stroke-width="1" fill="none" fill-rule="evenodd">
        <g id="Group" transform="translate(10.000000, 10.000000) rotate(-90.000000) translate(-10.000000, -10.000000) translate(2.000000, 8.000000)" fill="#757D8A">
            <path d="M0.333333266,1.99468241 C0.333268225,2.4674266 0.59775603,2.90420179 1.02705684,3.14057388 C1.45635766,3.37694598 1.98533327,3.37694598 2.41469912,3.14057388 C2.84399993,2.90420179 3.1084227,2.4674266 3.1084227,1.99468241 C3.1084227,1.52198474 2.84399993,1.08520954 2.41469912,0.84883745 C1.98533327,0.612465357 1.45635766,0.612465357 1.02705684,0.84883745 C0.59775603,1.08520954 0.333268225,1.52198474 0.333333266,1.99468241 Z" id="Fill-1" transform="translate(1.720878, 1.994706) rotate(-90.000000) translate(-1.720878, -1.994706) "></path>
            <path d="M6.60595131,1.99468199 C6.60595131,2.46736416 6.87042285,2.90413935 7.29973993,3.14044943 C7.72904074,3.37675951 8.25793505,3.37675951 8.68725212,3.14044943 C9.11655294,2.90413935 9.38104074,2.46736416 9.38104074,1.99468199 C9.38104074,1.26406184 8.75978871,0.671705246 7.99352854,0.671705246 C7.22720334,0.671705246 6.60595131,1.26406184 6.60595131,1.99468199 Z" id="Fill-3" transform="translate(7.993496, 1.994694) rotate(-90.000000) translate(-7.993496, -1.994694) "></path>
            <path d="M12.8786183,1.99468241 C12.8785532,2.4674266 13.142976,2.90420179 13.5723418,3.14057388 C14.0016589,3.37694598 14.5306183,3.37694598 14.9599191,3.14057388 C15.3892361,2.90420179 15.6537077,2.4674266 15.6536426,1.99468241 C15.6537077,1.52198474 15.3892361,1.08520954 14.9599191,0.84883745 C14.5306183,0.612465357 14.0016589,0.612465357 13.5723418,0.84883745 C13.142976,1.08520954 12.8785532,1.52198474 12.8786183,1.99468241 Z" id="Fill-4" transform="translate(14.266130, 1.994706) rotate(-90.000000) translate(-14.266130, -1.994706) "></path>
        </g>
    </g>
</svg>